<?xml version="1.0" encoding="UTF-8"?>
<svg xmlns="http://www.w3.org/2000/svg" viewBox="-200 -200 400 400" width="400mm" height="400mm">
  <title>Tile 01 - 2x2 layout</title>
  <defs><clipPath id="tile"><rect x="-200" y="-200" width="400" height="400"/></clipPath></defs>
  <rect id="background" x="-200" y="-200" width="400" height="400" fill="#F1F0EB"/>
  <g clip-path="url(#tile)">
  <g id="grey" fill="#BEBDBA" stroke="#BEBDBA" stroke-width="0">
      <g>
        <path d="M-166 -166 L-92 -92" stroke-width="7" stroke-linecap="round"/>
        <path d="M-137.5 -146 C-136.42 -148.17 -133.5 -155.42 -131 -159 C-128.5 -162.58 -125.58 -165 -122.5 -167.5 C-119.42 -170 -115.42 -171.5 -112.5 -174 C-109.58 -176.5 -107.08 -178.92 -105 -182.5 C-102.92 -186.08 -100.83 -193.33 -100 -195.5 C-98.92 -194.5 -95 -192.08 -93.5 -189.5 C-92 -186.92 -90.42 -182.83 -91 -180 C-91.58 -177.17 -96 -173.75 -97 -172.5 C-96.25 -171.58 -93 -169 -92.5 -167 C-92 -165 -92.83 -162.08 -94 -160.5 C-95.17 -158.92 -98.58 -158 -99.5 -157.5 C-98.83 -156.67 -95.83 -154.33 -95.5 -152.5 C-95.17 -150.67 -96.25 -148 -97.5 -146.5 C-98.75 -145 -102.08 -144 -103 -143.5 C-104.17 -142.83 -107.83 -140.5 -110 -139.5 C-112.17 -138.5 -114.17 -138.58 -116 -137.5 C-117.83 -136.42 -120.17 -133.75 -121 -133 Z M-127.5 -147 A2.5 2.5 0 1 0 -122.5 -147 A2.5 2.5 0 1 0 -127.5 -147Z" fill-rule="evenodd"/>
        <path d="M-146 -137.5 C-148.17 -136.42 -155.42 -133.5 -159 -131 C-162.58 -128.5 -165 -125.58 -167.5 -122.5 C-170 -119.42 -171.5 -115.42 -174 -112.5 C-176.5 -109.58 -178.92 -107.08 -182.5 -105 C-186.08 -102.92 -193.33 -100.83 -195.5 -100 C-194.5 -98.92 -192.08 -95 -189.5 -93.5 C-186.92 -92 -182.83 -90.42 -180 -91 C-177.17 -91.58 -173.75 -96 -172.5 -97 C-171.58 -96.25 -169 -93 -167 -92.5 C-165 -92 -162.08 -92.83 -160.5 -94 C-158.92 -95.17 -158 -98.58 -157.5 -99.5 C-156.67 -98.83 -154.33 -95.83 -152.5 -95.5 C-150.67 -95.17 -148 -96.25 -146.5 -97.5 C-145 -98.75 -144 -102.08 -143.5 -103 C-142.83 -104.17 -140.5 -107.83 -139.5 -110 C-138.5 -112.17 -138.58 -114.17 -137.5 -116 C-136.42 -117.83 -133.75 -120.17 -133 -121 Z M-149.5 -125 A2.5 2.5 0 1 0 -144.5 -125 A2.5 2.5 0 1 0 -149.5 -125Z" fill-rule="evenodd"/>
      </g>
      <g transform="scale(-1 1)">
        <path d="M-166 -166 L-92 -92" stroke-width="7" stroke-linecap="round"/>
        <path d="M-137.5 -146 C-136.42 -148.17 -133.5 -155.42 -131 -159 C-128.5 -162.58 -125.58 -165 -122.5 -167.5 C-119.42 -170 -115.42 -171.5 -112.5 -174 C-109.58 -176.5 -107.08 -178.92 -105 -182.5 C-102.92 -186.08 -100.83 -193.33 -100 -195.5 C-98.92 -194.5 -95 -192.08 -93.5 -189.5 C-92 -186.92 -90.42 -182.83 -91 -180 C-91.58 -177.17 -96 -173.75 -97 -172.5 C-96.25 -171.58 -93 -169 -92.5 -167 C-92 -165 -92.83 -162.08 -94 -160.5 C-95.17 -158.92 -98.58 -158 -99.5 -157.5 C-98.83 -156.67 -95.83 -154.33 -95.5 -152.5 C-95.17 -150.67 -96.25 -148 -97.5 -146.5 C-98.75 -145 -102.08 -144 -103 -143.5 C-104.17 -142.83 -107.83 -140.5 -110 -139.5 C-112.17 -138.5 -114.17 -138.58 -116 -137.5 C-117.83 -136.42 -120.17 -133.75 -121 -133 Z M-127.5 -147 A2.5 2.5 0 1 0 -122.5 -147 A2.5 2.5 0 1 0 -127.5 -147Z" fill-rule="evenodd"/>
        <path d="M-146 -137.5 C-148.17 -136.42 -155.42 -133.5 -159 -131 C-162.58 -128.5 -165 -125.58 -167.5 -122.5 C-170 -119.42 -171.5 -115.42 -174 -112.5 C-176.5 -109.58 -178.92 -107.08 -182.5 -105 C-186.08 -102.92 -193.33 -100.83 -195.5 -100 C-194.5 -98.92 -192.08 -95 -189.5 -93.5 C-186.92 -92 -182.83 -90.42 -180 -91 C-177.17 -91.58 -173.75 -96 -172.5 -97 C-171.58 -96.25 -169 -93 -167 -92.5 C-165 -92 -162.08 -92.83 -160.5 -94 C-158.92 -95.17 -158 -98.58 -157.5 -99.5 C-156.67 -98.83 -154.33 -95.83 -152.5 -95.5 C-150.67 -95.17 -148 -96.25 -146.5 -97.5 C-145 -98.75 -144 -102.08 -143.5 -103 C-142.83 -104.17 -140.5 -107.83 -139.5 -110 C-138.5 -112.17 -138.58 -114.17 -137.5 -116 C-136.42 -117.83 -133.75 -120.17 -133 -121 Z M-149.5 -125 A2.5 2.5 0 1 0 -144.5 -125 A2.5 2.5 0 1 0 -149.5 -125Z" fill-rule="evenodd"/>
      </g>
      <g transform="scale(1 -1)">
        <path d="M-166 -166 L-92 -92" stroke-width="7" stroke-linecap="round"/>
        <path d="M-137.5 -146 C-136.42 -148.17 -133.5 -155.42 -131 -159 C-128.5 -162.58 -125.58 -165 -122.5 -167.5 C-119.42 -170 -115.42 -171.5 -112.5 -174 C-109.58 -176.5 -107.08 -178.92 -105 -182.5 C-102.92 -186.08 -100.83 -193.33 -100 -195.5 C-98.92 -194.5 -95 -192.08 -93.5 -189.5 C-92 -186.92 -90.42 -182.83 -91 -180 C-91.58 -177.17 -96 -173.75 -97 -172.5 C-96.25 -171.58 -93 -169 -92.5 -167 C-92 -165 -92.83 -162.08 -94 -160.5 C-95.17 -158.92 -98.58 -158 -99.5 -157.5 C-98.83 -156.67 -95.83 -154.33 -95.5 -152.5 C-95.17 -150.67 -96.25 -148 -97.5 -146.5 C-98.75 -145 -102.08 -144 -103 -143.5 C-104.17 -142.83 -107.83 -140.5 -110 -139.5 C-112.17 -138.5 -114.17 -138.58 -116 -137.5 C-117.83 -136.42 -120.17 -133.75 -121 -133 Z M-127.5 -147 A2.5 2.5 0 1 0 -122.5 -147 A2.5 2.5 0 1 0 -127.5 -147Z" fill-rule="evenodd"/>
        <path d="M-146 -137.5 C-148.17 -136.42 -155.42 -133.5 -159 -131 C-162.58 -128.5 -165 -125.58 -167.5 -122.5 C-170 -119.42 -171.5 -115.42 -174 -112.5 C-176.5 -109.58 -178.92 -107.08 -182.5 -105 C-186.08 -102.92 -193.33 -100.83 -195.5 -100 C-194.5 -98.92 -192.08 -95 -189.5 -93.5 C-186.92 -92 -182.83 -90.42 -180 -91 C-177.17 -91.58 -173.75 -96 -172.5 -97 C-171.58 -96.25 -169 -93 -167 -92.5 C-165 -92 -162.08 -92.83 -160.5 -94 C-158.92 -95.17 -158 -98.58 -157.5 -99.5 C-156.67 -98.83 -154.33 -95.83 -152.5 -95.5 C-150.67 -95.17 -148 -96.25 -146.5 -97.5 C-145 -98.75 -144 -102.08 -143.5 -103 C-142.83 -104.17 -140.5 -107.83 -139.5 -110 C-138.5 -112.17 -138.58 -114.17 -137.5 -116 C-136.42 -117.83 -133.75 -120.17 -133 -121 Z M-149.5 -125 A2.5 2.5 0 1 0 -144.5 -125 A2.5 2.5 0 1 0 -149.5 -125Z" fill-rule="evenodd"/>
      </g>
      <g transform="scale(-1 -1)">
        <path d="M-166 -166 L-92 -92" stroke-width="7" stroke-linecap="round"/>
        <path d="M-137.5 -146 C-136.42 -148.17 -133.5 -155.42 -131 -159 C-128.5 -162.58 -125.58 -165 -122.5 -167.5 C-119.42 -170 -115.42 -171.5 -112.5 -174 C-109.58 -176.5 -107.08 -178.92 -105 -182.5 C-102.92 -186.08 -100.83 -193.33 -100 -195.5 C-98.92 -194.5 -95 -192.08 -93.5 -189.5 C-92 -186.92 -90.42 -182.83 -91 -180 C-91.58 -177.17 -96 -173.75 -97 -172.5 C-96.25 -171.58 -93 -169 -92.5 -167 C-92 -165 -92.83 -162.08 -94 -160.5 C-95.17 -158.92 -98.58 -158 -99.5 -157.5 C-98.83 -156.67 -95.83 -154.33 -95.5 -152.5 C-95.17 -150.67 -96.25 -148 -97.5 -146.5 C-98.75 -145 -102.08 -144 -103 -143.5 C-104.17 -142.83 -107.83 -140.5 -110 -139.5 C-112.17 -138.5 -114.17 -138.58 -116 -137.5 C-117.83 -136.42 -120.17 -133.75 -121 -133 Z M-127.5 -147 A2.5 2.5 0 1 0 -122.5 -147 A2.5 2.5 0 1 0 -127.5 -147Z" fill-rule="evenodd"/>
        <path d="M-146 -137.5 C-148.17 -136.42 -155.42 -133.5 -159 -131 C-162.58 -128.5 -165 -125.58 -167.5 -122.5 C-170 -119.42 -171.5 -115.42 -174 -112.5 C-176.5 -109.58 -178.92 -107.08 -182.5 -105 C-186.08 -102.92 -193.33 -100.83 -195.5 -100 C-194.5 -98.92 -192.08 -95 -189.5 -93.5 C-186.92 -92 -182.83 -90.42 -180 -91 C-177.17 -91.58 -173.75 -96 -172.5 -97 C-171.58 -96.25 -169 -93 -167 -92.5 C-165 -92 -162.08 -92.83 -160.5 -94 C-158.92 -95.17 -158 -98.58 -157.5 -99.5 C-156.67 -98.83 -154.33 -95.83 -152.5 -95.5 C-150.67 -95.17 -148 -96.25 -146.5 -97.5 C-145 -98.75 -144 -102.08 -143.5 -103 C-142.83 -104.17 -140.5 -107.83 -139.5 -110 C-138.5 -112.17 -138.58 -114.17 -137.5 -116 C-136.42 -117.83 -133.75 -120.17 -133 -121 Z M-149.5 -125 A2.5 2.5 0 1 0 -144.5 -125 A2.5 2.5 0 1 0 -149.5 -125Z" fill-rule="evenodd"/>
      </g>
  </g>
  <g id="dark-brown" fill="#3B2A26" stroke="#3B2A26" stroke-width="0">
    <path d="M-86.62 -86.62 A87.5 87.5 0 1 1 86.62 -86.62 A87.5 87.5 0 1 1 86.62 86.62 A87.5 87.5 0 1 1 -86.62 86.62 A87.5 87.5 0 1 1 -86.62 -86.62Z M-55.41 -55.41 A70.5 70.5 0 1 1 55.41 -55.41 A70.5 70.5 0 1 1 55.41 55.41 A70.5 70.5 0 1 1 -55.41 55.41 A70.5 70.5 0 1 1 -55.41 -55.41Z" fill-rule="evenodd"/>
    <circle cx="0" cy="0" r="32.5" fill="none" stroke="#3B2A26" stroke-width="11.5"/>
    <path d="M0 -166 A31.14 31.14 0 0 1 0 -114 A31.14 31.14 0 0 1 0 -166Z"/>
    <path d="M0 114 A31.14 31.14 0 0 1 0 166 A31.14 31.14 0 0 1 0 114Z"/>
    <path d="M0 -166 A31.14 31.14 0 0 1 0 -114 A31.14 31.14 0 0 1 0 -166Z" transform="rotate(90)"/>
    <path d="M0 -166 A31.14 31.14 0 0 1 0 -114 A31.14 31.14 0 0 1 0 -166Z" transform="rotate(-90)"/>
      <g>
        <path d="M-25 -65 C-22.83 -67 -15.17 -71.67 -12 -77 C-8.83 -82.33 -5.83 -90.17 -6 -97 C-6.17 -103.83 -9 -112.83 -13 -118 C-17 -123.17 -24.5 -127.33 -30 -128 C-35.5 -128.67 -42.33 -125 -46 -122 C-49.67 -119 -51.58 -113 -52 -110 C-52.42 -107 -49.83 -104 -48.5 -104 C-47.17 -104 -45.92 -108.25 -44 -110 C-42.08 -111.75 -39.67 -114.33 -37 -114.5 C-34.33 -114.67 -30.67 -113.42 -28 -111 C-25.33 -108.58 -22.5 -104.67 -21 -100 C-19.5 -95.33 -18.33 -88.83 -19 -83 C-19.67 -77.17 -24 -68 -25 -65 Z"/>
        <path d="M-65 -25 C-67 -22.83 -71.67 -15.17 -77 -12 C-82.33 -8.83 -90.17 -5.83 -97 -6 C-103.83 -6.17 -112.83 -9 -118 -13 C-123.17 -17 -127.33 -24.5 -128 -30 C-128.67 -35.5 -125 -42.33 -122 -46 C-119 -49.67 -113 -51.58 -110 -52 C-107 -52.42 -104 -49.83 -104 -48.5 C-104 -47.17 -108.25 -45.92 -110 -44 C-111.75 -42.08 -114.33 -39.67 -114.5 -37 C-114.67 -34.33 -113.42 -30.67 -111 -28 C-108.58 -25.33 -104.67 -22.5 -100 -21 C-95.33 -19.5 -88.83 -18.33 -83 -19 C-77.17 -19.67 -68 -24 -65 -25 Z"/>
        <circle cx="-93" cy="-93" r="6.5"/>
      </g>
      <g transform="scale(-1 1)">
        <path d="M-25 -65 C-22.83 -67 -15.17 -71.67 -12 -77 C-8.83 -82.33 -5.83 -90.17 -6 -97 C-6.17 -103.83 -9 -112.83 -13 -118 C-17 -123.17 -24.5 -127.33 -30 -128 C-35.5 -128.67 -42.33 -125 -46 -122 C-49.67 -119 -51.58 -113 -52 -110 C-52.42 -107 -49.83 -104 -48.5 -104 C-47.17 -104 -45.92 -108.25 -44 -110 C-42.08 -111.75 -39.67 -114.33 -37 -114.5 C-34.33 -114.67 -30.67 -113.42 -28 -111 C-25.33 -108.58 -22.5 -104.67 -21 -100 C-19.5 -95.33 -18.33 -88.83 -19 -83 C-19.67 -77.17 -24 -68 -25 -65 Z"/>
        <path d="M-65 -25 C-67 -22.83 -71.67 -15.17 -77 -12 C-82.33 -8.83 -90.17 -5.83 -97 -6 C-103.83 -6.17 -112.83 -9 -118 -13 C-123.17 -17 -127.33 -24.5 -128 -30 C-128.67 -35.5 -125 -42.33 -122 -46 C-119 -49.67 -113 -51.58 -110 -52 C-107 -52.42 -104 -49.83 -104 -48.5 C-104 -47.17 -108.25 -45.92 -110 -44 C-111.75 -42.08 -114.33 -39.67 -114.5 -37 C-114.67 -34.33 -113.42 -30.67 -111 -28 C-108.58 -25.33 -104.67 -22.5 -100 -21 C-95.33 -19.5 -88.83 -18.33 -83 -19 C-77.17 -19.67 -68 -24 -65 -25 Z"/>
        <circle cx="-93" cy="-93" r="6.5"/>
      </g>
      <g transform="scale(1 -1)">
        <path d="M-25 -65 C-22.83 -67 -15.17 -71.67 -12 -77 C-8.83 -82.33 -5.83 -90.17 -6 -97 C-6.17 -103.83 -9 -112.83 -13 -118 C-17 -123.17 -24.5 -127.33 -30 -128 C-35.5 -128.67 -42.33 -125 -46 -122 C-49.67 -119 -51.58 -113 -52 -110 C-52.42 -107 -49.83 -104 -48.5 -104 C-47.17 -104 -45.92 -108.25 -44 -110 C-42.08 -111.75 -39.67 -114.33 -37 -114.5 C-34.33 -114.67 -30.67 -113.42 -28 -111 C-25.33 -108.58 -22.5 -104.67 -21 -100 C-19.5 -95.33 -18.33 -88.83 -19 -83 C-19.67 -77.17 -24 -68 -25 -65 Z"/>
        <path d="M-65 -25 C-67 -22.83 -71.67 -15.17 -77 -12 C-82.33 -8.83 -90.17 -5.83 -97 -6 C-103.83 -6.17 -112.83 -9 -118 -13 C-123.17 -17 -127.33 -24.5 -128 -30 C-128.67 -35.5 -125 -42.33 -122 -46 C-119 -49.67 -113 -51.58 -110 -52 C-107 -52.42 -104 -49.83 -104 -48.5 C-104 -47.17 -108.25 -45.92 -110 -44 C-111.75 -42.08 -114.33 -39.67 -114.5 -37 C-114.67 -34.33 -113.42 -30.67 -111 -28 C-108.58 -25.33 -104.67 -22.5 -100 -21 C-95.33 -19.5 -88.83 -18.33 -83 -19 C-77.17 -19.67 -68 -24 -65 -25 Z"/>
        <circle cx="-93" cy="-93" r="6.5"/>
      </g>
      <g transform="scale(-1 -1)">
        <path d="M-25 -65 C-22.83 -67 -15.17 -71.67 -12 -77 C-8.83 -82.33 -5.83 -90.17 -6 -97 C-6.17 -103.83 -9 -112.83 -13 -118 C-17 -123.17 -24.5 -127.33 -30 -128 C-35.5 -128.67 -42.33 -125 -46 -122 C-49.67 -119 -51.58 -113 -52 -110 C-52.42 -107 -49.83 -104 -48.5 -104 C-47.17 -104 -45.92 -108.25 -44 -110 C-42.08 -111.75 -39.67 -114.33 -37 -114.5 C-34.33 -114.67 -30.67 -113.42 -28 -111 C-25.33 -108.58 -22.5 -104.67 -21 -100 C-19.5 -95.33 -18.33 -88.83 -19 -83 C-19.67 -77.17 -24 -68 -25 -65 Z"/>
        <path d="M-65 -25 C-67 -22.83 -71.67 -15.17 -77 -12 C-82.33 -8.83 -90.17 -5.83 -97 -6 C-103.83 -6.17 -112.83 -9 -118 -13 C-123.17 -17 -127.33 -24.5 -128 -30 C-128.67 -35.5 -125 -42.33 -122 -46 C-119 -49.67 -113 -51.58 -110 -52 C-107 -52.42 -104 -49.83 -104 -48.5 C-104 -47.17 -108.25 -45.92 -110 -44 C-111.75 -42.08 -114.33 -39.67 -114.5 -37 C-114.67 -34.33 -113.42 -30.67 -111 -28 C-108.58 -25.33 -104.67 -22.5 -100 -21 C-95.33 -19.5 -88.83 -18.33 -83 -19 C-77.17 -19.67 -68 -24 -65 -25 Z"/>
        <circle cx="-93" cy="-93" r="6.5"/>
      </g>
  </g>
  <g id="terracotta" fill="#B5573F" stroke="#B5573F" stroke-width="0">
      <g>
        <circle cx="-175.01" cy="-162.99" r="8.5"/>
        <circle cx="-175.01" cy="-175.01" r="8.5"/>
        <circle cx="-162.99" cy="-175.01" r="8.5"/>
        <circle cx="-169" cy="-169" r="5.1"/>
        <path d="M-169 -169 L-161.93 -161.93" stroke-width="6" stroke-linecap="round"/>
        <circle cx="-46.99" cy="-61.01" r="8.5"/>
        <circle cx="-46.99" cy="-48.99" r="8.5"/>
        <circle cx="-59.01" cy="-48.99" r="8.5"/>
        <circle cx="-53" cy="-55" r="5.1"/>
        <path d="M-53 -55 L-60.07 -62.07" stroke-width="6" stroke-linecap="round"/>
      </g>
      <g transform="scale(-1 1)">
        <circle cx="-175.01" cy="-162.99" r="8.5"/>
        <circle cx="-175.01" cy="-175.01" r="8.5"/>
        <circle cx="-162.99" cy="-175.01" r="8.5"/>
        <circle cx="-169" cy="-169" r="5.1"/>
        <path d="M-169 -169 L-161.93 -161.93" stroke-width="6" stroke-linecap="round"/>
        <circle cx="-46.99" cy="-61.01" r="8.5"/>
        <circle cx="-46.99" cy="-48.99" r="8.5"/>
        <circle cx="-59.01" cy="-48.99" r="8.5"/>
        <circle cx="-53" cy="-55" r="5.1"/>
        <path d="M-53 -55 L-60.07 -62.07" stroke-width="6" stroke-linecap="round"/>
      </g>
      <g transform="scale(1 -1)">
        <circle cx="-175.01" cy="-162.99" r="8.5"/>
        <circle cx="-175.01" cy="-175.01" r="8.5"/>
        <circle cx="-162.99" cy="-175.01" r="8.5"/>
        <circle cx="-169" cy="-169" r="5.1"/>
        <path d="M-169 -169 L-161.93 -161.93" stroke-width="6" stroke-linecap="round"/>
        <circle cx="-46.99" cy="-61.01" r="8.5"/>
        <circle cx="-46.99" cy="-48.99" r="8.5"/>
        <circle cx="-59.01" cy="-48.99" r="8.5"/>
        <circle cx="-53" cy="-55" r="5.1"/>
        <path d="M-53 -55 L-60.07 -62.07" stroke-width="6" stroke-linecap="round"/>
      </g>
      <g transform="scale(-1 -1)">
        <circle cx="-175.01" cy="-162.99" r="8.5"/>
        <circle cx="-175.01" cy="-175.01" r="8.5"/>
        <circle cx="-162.99" cy="-175.01" r="8.5"/>
        <circle cx="-169" cy="-169" r="5.1"/>
        <path d="M-169 -169 L-161.93 -161.93" stroke-width="6" stroke-linecap="round"/>
        <circle cx="-46.99" cy="-61.01" r="8.5"/>
        <circle cx="-46.99" cy="-48.99" r="8.5"/>
        <circle cx="-59.01" cy="-48.99" r="8.5"/>
        <circle cx="-53" cy="-55" r="5.1"/>
        <path d="M-53 -55 L-60.07 -62.07" stroke-width="6" stroke-linecap="round"/>
      </g>
  </g>
  </g>
</svg>
