<svg xmlns="http://www.w3.org/2000/svg" xmlns:xlink="http://www.w3.org/1999/xlink" xmlns:inkscape="http://www.inkscape.org/namespaces/inkscape" version="1.1" width="253" height="227" viewBox="0 0 253 227">
<defs>
<clipPath id="clip_1">
<path transform="matrix(1,0,0,-1,-295,429.95997)" d="M295 202.95996H548V429.95997H295Z"/>
</clipPath>
<clipPath id="clip_2">
<path transform="matrix(1,0,0,-1,-295,429.95997)" d="M0 0H841.92V594.95999H0Z"/>
</clipPath>
<clipPath id="clip_3">
<path transform="matrix(.24,0,0,.24,-295,-165)" d="M-1 0H3507.3243V2479.1505H-1Z" clip-rule="evenodd"/>
</clipPath>
<clipPath id="clip_4">
<path transform="matrix(.24,0,0,.24,-295,-165)" d="M1255.2246 715.625H2255.2247V1606.25H1255.2246Z" clip-rule="evenodd"/>
</clipPath>
<clipPath id="clip_5">
<path transform="matrix(.24,0,0,.24,-295,-165)" d="M-1 0H3507.3243V2478.125H-1Z" clip-rule="evenodd"/>
</clipPath>
<g id="font_6_126">
<path transform="matrix(.001,0,0,-.001,0,0)" d="M699 0C725 0 739-14 739-40V-133H675C666-345 551-409 454-409 339-409 260-320 260-193 260-103 300 0 425 0H576C546 105 454 139 338 139 171 139 104 69 104-41 104-68 108-120 124-180L40-197C18-135 9-60 9-8 9 200 162 260 322 260 509 260 634 178 667 0H699ZM344-202C344-244 369-292 436-292 505-292 569-241 583-133H446C374-133 344-162 344-202ZM389-502 455-569 521-502 599-581 521-659 455-593 389-659 311-581 389-502Z"/>
</g>
<g id="font_6_104">
<path transform="matrix(.001,0,0,-.001,0,0)" d="M832 0C857 0 872-14 872-40V-133C797-133 758-146 758-224V-347H657V-210C657-187 659-165 663-144 645-138 624-133 604-133 566-133 546-151 546-185V-274H445V-174C445-164 446-155 446-146 424-135 399-127 365-127 311-127 272-146 238-176L287-257 211-304 141-190C119-154 91-133 40-133 14-133 0-120 0-93V0C77 0 124-15 174-78 215-27 273 0 325 0 375 0 410-25 430-42L451-105C464-30 502 0 558 0 604 0 640-21 662-44L672-105C694-44 740 0 832 0ZM433-397 499-464 565-397 643-476 565-554 499-488 433-554 355-476 433-397ZM500-543 576-619 500-695 425-619 500-543Z"/>
</g>
<g id="font_6_136">
<path transform="matrix(.001,0,0,-.001,0,0)" d="M0 0C74 0 122-29 150-78 206-32 273 0 349 0 463 0 552-71 552-205 552-337 466-423 361-423 265-423 198-350 158-261L131-205C106-149 78-133 41-133H40C14-133 0-120 0-94V0ZM207-164 225-203C249-262 294-305 354-305 416-305 463-260 463-203 463-146 415-121 351-121 299-121 255-138 207-164Z"/>
</g>
<g id="font_7_225">
<path transform="matrix(.001,0,0,-.001,0,0)" d="M294-553 214-467 381-288C410-256 418-228 418-211 418-160 339-133 252-133 145-133 115-175 115-237H25C23-130 46 0 240 0 404 0 509-93 509-217 509-271 489-333 438-391L294-553Z"/>
</g>
<g id="font_7_3">
</g>
<g id="font_6_138">
<path transform="matrix(.001,0,0,-.001,0,0)" d="M572-337 475-304C518-178 533-65 533-35 533 47 429 97 307 97 172 97 105 36 105-82 105-130 116-187 125-227L41-244C24-191 9-119 9-53 9 113 102 226 294 226 465 226 606 137 625-24 644-8 667 0 698 0 723 0 738-14 738-40V-133H729C644-133 621-165 593-263L573-338V-336C572-336 572-336 572-337ZM309-321 393-406 309-490 225-406 309-321Z"/>
</g>
<g id="font_6_135">
<path transform="matrix(.001,0,0,-.001,0,0)" d="M713 0C738 0 752-14 752-40V-133C675-133 657-160 637-210L614-268C578-359 514-414 422-414 319-414 243-345 223-246 88-233 25-149 25 18V259H128V-36C128-105 146-123 226-124H229C254-43 325 0 412 0 465 0 511-16 540-34L571-115C606-30 651 0 713 0ZM423-118C345-118 303-149 303-202 303-259 351-298 412-298 478-298 516-253 536-201L560-141C517-128 467-118 423-118Z"/>
</g>
<g id="font_6_147">
<path transform="matrix(.001,0,0,-.001,0,0)" d="M0 0C148 0 295-70 255-302L232-436 126-417 156-246C171-154 132-133 40-133 15-133 0-119 0-93V0ZM61 241 127 174 193 241 271 162 193 84 127 150 61 84-17 162 61 241Z"/>
</g>
<g id="font_6_97">
<path transform="matrix(.001,0,0,-.001,0,0)" d="M282 0C307 0 322-14 322-40V-133H313C225-133 201-173 176-272L166-312C163-326 160-339 158-352H157L61-327C92-208 117-114 117-42 117 22 97 124-79 124-90 124-109 124-119 124V239C-103 240-76 241-61 241 145 241 202 98 206-28 225-9 249 0 282 0Z"/>
</g>
<g id="font_8_252">
<path transform="matrix(.001,0,0,-.001,0,0)" d="M540 0C566 0 580-14 580-40V-133H556C449-133 403-160 338-237L101-508 563-662V-774L63-610V-412L261-174C265-170 268-166 271-162 212-141 153-133 73-133H40C14-133 0-120 0-93V0H57C146 0 211-21 244-41L289-142C346-78 424 0 516 0H540Z"/>
</g>
<g id="font_6_133">
<path transform="matrix(.001,0,0,-.001,0,0)" d="M39-133C14-133 0-120 0-94V0C161 0 222-100 222-285V-746H120V-219C120-155 90-133 39-133Z"/>
</g>
<g id="font_7_217">
<path transform="matrix(.001,0,0,-.001,0,0)" d="M176 0V-746H74V0H176Z"/>
</g>
<g id="font_7_243">
<path transform="matrix(.001,0,0,-.001,0,0)" d="M573-374 475-342C519-215 533-103 533-72 533 9 429 59 307 59 172 59 105-1 105-119 105-167 116-224 126-264L41-281C24-228 9-157 9-90 9 76 102 188 295 188 478 188 628 86 628-99 628-189 593-290 573-374ZM304-359 388-444 304-528 220-444 304-359Z"/>
</g>
<g id="font_7_212">
<path transform="matrix(.001,0,0,-.001,0,0)" d="M176 0V-664H74V0H176ZM-9-782 2-733 66-762C103-743 126-725 160-725 203-725 239-753 258-803L226-829C209-796 188-776 159-776 122-776 98-810 64-810 57-810 50-809 42-805L-9-782Z"/>
</g>
<g id="font_6_128">
<path transform="matrix(.001,0,0,-.001,0,0)" d="M511 0C538 0 552-13 552-40V-133C495-133 446-136 403-142 447-181 481-235 481-307 481-413 407-498 283-498 154-498 74-406 74-296 74-231 102-179 144-136 109-134 74-133 40-133 14-133 0-120 0-93V0C43 0 100-3 134-12L252-62C339-19 440 0 511 0ZM159-289C159-339 201-380 276-380 357-380 391-333 391-290 391-236 340-194 287-166 195-195 159-242 159-289ZM206-590 272-657 338-590 416-669 338-747 272-681 206-747 128-669 206-590Z"/>
</g>
<g id="font_6_79">
<path transform="matrix(.001,0,0,-.001,0,0)" d="M525 0C550 0 564-14 564-40V-133C495-133 445-137 445-217V-537H349V-457L201-401C85-358 37-278 37-196 37-104 97-33 199-33 246-33 297-48 325-64L354-145C371-49 435 0 525 0ZM218-303 349-348V-203C349-195 349-188 350-180 304-163 250-153 215-153 162-153 123-176 123-217 123-257 160-284 218-303ZM255-629 321-695 386-629 464-708 386-786 321-721 255-786 177-708 255-629Z"/>
</g>
<g id="font_6_118">
<path transform="matrix(.001,0,0,-.001,0,0)" d="M40-133C14-133 0-120 0-93V0C169 0 414-30 558-82L546-187 545-186 546-187C477-173 381-153 320-153 177-153 156-232 156-267 156-314 194-361 272-361 347-361 394-317 422-283L503-336C462-418 398-482 284-482 139-482 64-378 64-272 64-216 84-170 116-134 92-134 67-133 40-133Z"/>
</g>
<g id="font_7_226">
<path transform="matrix(.001,0,0,-.001,0,0)" d="M294-553 214-467 381-288C410-256 418-228 418-211 418-160 339-133 252-133 145-133 115-175 115-237H25C23-130 46 0 240 0 404 0 509-93 509-217 509-271 489-333 438-391L294-553ZM293-647 377-732 293-816 209-732 293-647Z"/>
</g>
<g id="font_7_215">
<path transform="matrix(.001,0,0,-.001,0,0)" d="M176 0V-746H74V0H176ZM29 278 229 225 220 171 163 183C150 186 139 187 129 187 85 187 71 163 71 147 71 124 98 115 118 115 143 115 159 131 169 146L208 127C198 91 176 54 126 54 75 54 32 94 32 151 32 181 44 203 64 218 52 224 39 231 22 238L29 278Z"/>
</g>
</defs>
<g clip-path="url(#clip_1)">
<g clip-path="url(#clip_2)">
<g clip-path="url(#clip_3)">
<path transform="matrix(.75,0,0,.75,-295.2461,-26367)" d="M0 34936H1123V35729H0Z" fill="#1e3a45"/>
</g>
<g clip-path="url(#clip_4)">
<path transform="matrix(.79145237,0,0,.79145237,-280.35316,-4.324951)" d="M466.75 14H560.75C561.2333 19.021489 561.3925 24.053233 561.2278 29.095232 561.063 34.137235 560.5755 39.14784 559.7653 44.127054 558.95516 49.106267 557.829 54.01296 556.38687 58.847124 554.94479 63.68129 553.19857 68.403 551.1482 73.01225 549.0979 77.621509 546.76046 82.08023 544.13589 86.38842 541.5113 90.69661 538.6212 94.81867 535.4657 98.75462 532.31027 102.69057 528.91537 106.407878 525.281 109.906558 521.64669 113.40524 517.80307 116.656398 513.75 119.66 509.69694 116.656398 505.85325 113.40524 502.21894 109.906558 498.58464 106.407878 495.1897 102.69057 492.03419 98.754619 488.8787 94.818668 485.98866 90.6966 483.36405 86.38841 480.73948 82.08022 478.40205 77.621509 476.3517 73.01225 474.3014 68.403 472.55519 63.68129 471.11305 58.847127 469.6709 54.01296 468.54475 49.106267 467.7346 44.127054 466.92445 39.14784 466.43696 34.137235 466.2722 29.095232 466.10743 24.053233 466.2667 19.021489 466.75 14Z" fill="#b3965a" fill-rule="evenodd"/>
<path transform="matrix(.79145237,0,0,.79145237,-280.35316,-4.324951)" d="M417.08 64.88 395.49 113.09C397.57478 114.67832 399.71574 116.18691 401.91285 117.615779 404.11003 119.04465 406.35725 120.389827 408.65458 121.65131 410.9519 122.91281 413.29298 124.08713 415.67778 125.17426 418.06257 126.261409 420.4845 127.258358 422.94355 128.16512 425.40257 129.07187 427.8919 129.88593 430.4116 130.60729 432.93125 131.32865 435.47425 131.95529 438.0406 132.48725 440.60694 133.0192 443.1895 133.45497 445.7883 133.79459 448.38713 134.1342 450.99497 134.3767 453.61183 134.52207 456.22868 134.66745 458.84733 134.71532 461.46775 134.66567 464.08815 134.616 466.7031 134.46897 469.31257 134.22457 471.92204 133.98017 474.5188 133.63906 477.10289 133.20124 479.68696 132.76342 482.2512 132.23012 484.79554 131.60134 487.33988 130.97254 489.8573 130.25 492.34785 129.43372 494.8384 128.61743 497.29515 127.70966 499.71809 126.7104 502.141 125.71114 504.5234 124.62317 506.86534 123.44647 509.2072 122.26978 511.5021 121.00762 513.75 119.66L417.08 64.88Z" fill="#fffdf5" fill-rule="evenodd"/>
<path transform="matrix(.79145237,0,0,.79145237,-280.35316,-4.324951)" d="M610.42 64.88 632.01 113.09C629.92526 114.67832 627.7843 116.18691 625.5871 117.615779 623.3899 119.04465 621.14266 120.389827 618.84536 121.65131 616.54806 122.91281 614.207 124.08713 611.8222 125.17426 609.43746 126.2614 607.0155 127.25835 604.55648 128.1651 602.0974 129.07186 599.60806 129.88591 597.0883 130.60727 594.5687 131.32863 592.0257 131.95528 589.45938 132.48723 586.893 133.0192 584.3104 133.45497 581.7117 133.79457 579.11288 134.13419 576.50509 134.37668 573.8882 134.52205 571.2713 134.66744 568.6527 134.7153 566.0323 134.66565 563.41189 134.616 560.7969 134.46897 558.1874 134.22455 555.5779 133.98015 552.9811 133.63906 550.39706 133.20124 547.8129 132.76342 545.2487 132.23012 542.7044 131.60134 540.16006 130.97254 537.64266 130.25 535.1521 129.43372 532.6615 128.61743 530.2048 127.70966 527.78189 126.7104 525.35897 125.71114 522.97659 124.62317 520.6347 123.44647 518.29287 122.269779 515.9979 121.00762 513.75 119.66L610.42 64.88Z" fill="#fffdf5" fill-rule="evenodd"/>
<path transform="matrix(.6895987,0,0,.6895987,1.4306641,120.28552)" d="M154.2 144.8C154.09 144.69 154 144.56 154 144.5 154 144.44 153.91 144.31 153.8 144.2L153.6 144H151.97C150.51 144 150.31 143.98 150.17 143.82 150.02 143.65 150 143.21 150 139.48V135.33L149.82 135.17C149.72 135.07 149.57 135 149.48 135 149.4 135 149.26 134.92 149.17 134.82 149.02 134.65 149 134.21 149 130.48V126.33L149.18 126.17C149.33 126.03 149.58 126 150.42 126 151.01 126 151.56 126.03 151.65 126.06 151.74 126.1 151.89 126.29 152 126.5 152.11 126.71 152.26 126.9 152.35 126.94 152.57 127.02 160.43 127.02 160.65 126.94 160.74 126.9 160.89 126.71 161 126.5 161.22 126.06 161.35 126 162 126 162.65 126 162.78 125.94 163 125.5 163.11 125.28 163.31 125.08 163.5 125 163.69 124.92 163.89 124.72 164 124.5 164.11 124.28 164.31 124.08 164.5 124 164.69 123.92 164.89 123.72 165 123.49 165.11 123.28 165.3 123.08 165.42 123.05 165.95 122.88 166 122.75 166 121.5 166 120.49 166.03 120.31 166.18 120.17 166.28 120.07 166.43 120 166.52 120 166.6 120 166.74 119.92 166.83 119.82L167 119.63V81.98 44.33L167.18 44.17 167.37 44H176.02 184.67L184.83 44.18 185 44.37V82.52 120.67L184.82 120.83C184.72 120.93 184.57 121 184.48 121 184.4 121 184.26 121.08 184.17 121.18 184.02 121.34 184 121.69 184 124.02V126.67L183.82 126.83C183.72 126.93 183.57 127 183.48 127 183.4 127 183.26 127.08 183.17 127.18 183.03 127.33 183 127.59 183 128.52 183 129.51 182.97 129.69 182.82 129.83 182.72 129.93 182.57 130 182.48 130 182.4 130 182.26 130.08 182.17 130.18 182.03 130.33 182 130.59 182 131.52 182 132.51 181.97 132.69 181.82 132.83 181.72 132.93 181.57 133 181.48 133 181.16 133 181 133.34 181 134.02 181 134.71 180.89 134.9 180.42 135.05 180.3 135.08 180.11 135.29 180 135.5 179.89 135.71 179.7 135.92 179.58 135.95 179.11 136.1 179 136.29 179 137 179 137.71 178.89 137.9 178.42 138.05 178.3 138.08 178.11 138.28 178 138.49 177.89 138.72 177.69 138.92 177.5 139 177.31 139.08 177.11 139.28 177 139.5 176.89 139.72 176.69 139.92 176.5 140 176.31 140.08 176.11 140.28 176 140.5 175.78 140.94 175.65 141 175 141 174.35 141 174.22 141.06 174 141.5 173.78 141.94 173.65 142 173 142 172.35 142 172.22 142.06 172 142.5 171.89 142.71 171.74 142.9 171.65 142.94 171.56 142.97 171.04 143 170.5 143 169.96 143 169.44 143.03 169.35 143.06 169.26 143.1 169.11 143.29 169 143.5 168.89 143.71 168.74 143.9 168.65 143.94 168.56 143.97 167.82 144 167 144 166.18 144 165.44 144.03 165.35 144.06 165.26 144.1 165.11 144.29 165 144.5 164.89 144.71 164.74 144.9 164.65 144.94 164.56 144.97 162.21 145 159.44 145H154.4L154.2 144.8ZM225.2 144.8C225.09 144.69 225 144.56 225 144.5 225 144.44 224.91 144.31 224.8 144.2L224.6 144H222.06C220.66 144 219.44 143.97 219.35 143.94 219.26 143.9 219.11 143.71 219 143.5 218.89 143.29 218.74 143.1 218.65 143.06 218.56 143.03 217.82 143 217 143 216.18 143 215.44 142.97 215.35 142.94 215.26 142.9 215.11 142.71 215 142.5 214.89 142.29 214.74 142.1 214.65 142.06 214.56 142.03 214 142 213.41 142 212.49 142 212.31 141.97 212.17 141.82L212 141.63V134.98 128.33L211.82 128.17C211.72 128.07 211.57 128 211.48 128 211.4 128 211.26 127.92 211.17 127.82 211.03 127.66 211 127.38 211 125.98 211 124.03 211.02 124 211.92 124 212.66 124 212.77 124.05 213 124.5 213.11 124.71 213.26 124.9 213.35 124.94 213.44 124.97 214.18 125 215 125 215.82 125 216.56 125.03 216.65 125.06 216.74 125.1 216.89 125.29 217 125.5 217.11 125.71 217.26 125.9 217.35 125.94 217.44 125.97 218.63 126 220 126 221.37 126 222.56 126.03 222.65 126.06 222.74 126.1 222.89 126.29 223 126.5 223.11 126.71 223.26 126.9 223.35 126.94 223.57 127.02 237.43 127.02 237.65 126.94 237.74 126.9 237.89 126.71 238 126.5 238.11 126.29 238.26 126.1 238.35 126.06 238.44 126.03 238.96 126 239.5 126 240.04 126 240.56 125.97 240.65 125.94 240.74 125.9 240.89 125.71 241 125.5 241.22 125.06 241.35 125 242 125 242.65 125 242.78 124.94 243 124.5 243.11 124.28 243.31 124.08 243.5 124 243.69 123.92 243.89 123.72 244 123.49 244.11 123.28 244.3 123.08 244.42 123.05 244.89 122.9 245 122.71 245 122 245 121.31 245.16 121 245.52 121 245.89 121 246 120.67 246 119.56 246 118.97 246.04 118.4 246.1 118.3 246.15 118.2 246.34 118.09 246.51 118.05 246.9 117.96 247.08 117.61 246.92 117.25L246.8 117H242.16C239.61 117 237.44 116.97 237.35 116.94 237.26 116.9 237.11 116.71 237 116.5 236.89 116.29 236.74 116.1 236.65 116.06 236.56 116.03 235.37 116 234 116 232.63 116 231.44 115.97 231.35 115.94 231.26 115.9 231.11 115.71 231 115.5 230.89 115.29 230.74 115.1 230.65 115.06 230.56 115.03 229.59 115 228.5 115 227.41 115 226.44 114.97 226.35 114.94 226.26 114.9 226.11 114.71 226 114.5 225.89 114.29 225.74 114.1 225.65 114.06 225.56 114.03 225.04 114 224.5 114 223.96 114 223.44 113.97 223.35 113.94 223.26 113.9 223.11 113.71 223 113.5 222.89 113.29 222.74 113.1 222.65 113.06 222.56 113.03 222.04 113 221.5 113 220.96 113 220.44 112.97 220.35 112.94 220.26 112.9 220.11 112.71 220 112.5 219.78 112.06 219.65 112 219 112 218.35 112 218.22 111.94 218 111.5 217.78 111.06 217.65 111 217 111 216.35 111 216.22 110.94 216 110.5 215.89 110.28 215.69 110.08 215.5 110 215.31 109.92 215.11 109.72 215 109.5 214.78 109.06 214.65 109 214 109 213.35 109 213.22 108.94 213 108.5 212.89 108.28 212.69 108.08 212.5 108 212.31 107.92 212.11 107.72 212 107.5 211.89 107.28 211.69 107.08 211.5 107 211.31 106.92 211.11 106.72 211 106.5 210.77 106.05 210.66 106 209.91 106 209.14 106 209 105.85 209 104.98 209 104.29 208.89 104.1 208.42 103.95 208.3 103.92 208.11 103.72 208 103.51 207.89 103.28 207.69 103.08 207.5 103 207.31 102.92 207.11 102.72 207 102.5 206.89 102.28 206.69 102.08 206.5 102 206.31 101.92 206.11 101.72 206 101.49 205.89 101.28 205.7 101.08 205.58 101.05 205.11 100.9 205 100.71 205 100 205 99.31 204.84 99 204.48 99 204.16 99 204 98.66 204 97.98 204 97.31 203.84 97 203.48 97 203.16 97 203 96.66 203 95.98 203 95.31 202.84 95 202.48 95 202.4 95 202.26 94.92 202.17 94.82 202.03 94.67 202 94.41 202 93.48 202 92.49 201.97 92.31 201.82 92.17 201.72 92.07 201.57 92 201.48 92 201.4 92 201.26 91.92 201.17 91.82 201.02 91.66 201 91.34 201 89.48V87.33L200.82 87.17C200.72 87.07 200.57 87 200.48 87 200.4 87 200.26 86.92 200.17 86.82L200 86.63V80.98 75.33L200.18 75.17C200.28 75.07 200.43 75 200.52 75 200.6 75 200.74 74.92 200.83 74.82 200.98 74.66 201 74.34 201 72.48V70.33L201.18 70.17C201.28 70.07 201.43 70 201.52 70 201.6 70 201.74 69.92 201.83 69.82 201.97 69.67 202 69.41 202 68.48 202 67.49 202.03 67.31 202.18 67.17 202.28 67.07 202.43 67 202.52 67 202.84 67 203 66.66 203 65.98 203 65.31 203.16 65 203.52 65 203.84 65 204 64.66 204 63.98 204 63.31 204.16 63 204.52 63 204.84 63 205 62.66 205 61.98 205 61.29 205.11 61.1 205.58 60.95 205.7 60.92 205.89 60.72 206 60.51 206.11 60.28 206.31 60.08 206.5 60 206.69 59.92 206.89 59.72 207 59.49 207.11 59.28 207.3 59.08 207.42 59.05 207.89 58.9 208 58.71 208 58 208 57.29 208.11 57.1 208.58 56.95 208.7 56.92 208.89 56.72 209 56.51 209.11 56.28 209.31 56.08 209.5 56 209.69 55.92 209.89 55.72 210 55.5 210.22 55.06 210.35 55 211 55 211.65 55 211.78 54.94 212 54.5 212.11 54.28 212.31 54.08 212.5 54 212.69 53.92 212.89 53.72 213 53.5 213.11 53.28 213.31 53.08 213.5 53 213.69 52.92 213.89 52.72 214 52.5 214.22 52.06 214.35 52 215 52 215.65 52 215.78 51.94 216 51.5 216.11 51.28 216.31 51.08 216.5 51 216.69 50.92 216.89 50.72 217 50.5 217.22 50.06 217.35 50 218 50 218.65 50 218.78 49.94 219 49.5 219.11 49.29 219.26 49.1 219.35 49.06 219.44 49.03 219.96 49 220.5 49 221.04 49 221.56 48.97 221.65 48.94 221.74 48.9 221.89 48.71 222 48.5 222.22 48.06 222.35 48 223 48 223.65 48 223.78 47.94 224 47.5 224.11 47.29 224.26 47.1 224.35 47.06 224.44 47.03 224.96 47 225.5 47 226.04 47 226.56 46.97 226.65 46.94 226.74 46.9 226.89 46.71 227 46.5 227.11 46.29 227.26 46.1 227.35 46.06 227.44 46.03 228.18 46 229 46 229.82 46 230.56 45.97 230.65 45.94 230.74 45.9 230.89 45.71 231 45.5 231.11 45.29 231.26 45.1 231.35 45.06 231.44 45.03 232.63 45 234 45 235.37 45 236.56 44.97 236.65 44.94 236.74 44.9 236.89 44.71 237 44.5 237.11 44.29 237.26 44.1 237.35 44.06 237.44 44.03 243.63 44 251.09 44H264.67L264.83 44.18 265 44.37V71.52 98.67L265.18 98.83 265.37 99H300.52 335.67L335.83 98.82 336 98.63V71.48 44.33L336.18 44.17 336.37 44H345.02 353.67L353.83 44.18 354 44.37V80.52 116.67L353.82 116.83 353.63 117H309.58C285.34 117 265.44 117.03 265.35 117.06 265.26 117.1 265.1 117.3 265 117.51 264.89 117.71 264.7 117.92 264.58 117.95 264.45 117.99 264.27 118.09 264.18 118.18L264 118.33V121 123.67L263.82 123.83C263.72 123.93 263.57 124 263.48 124 263.4 124 263.26 124.08 263.17 124.18 263.03 124.33 263 124.59 263 125.52 263 126.51 262.97 126.69 262.82 126.83 262.72 126.93 262.57 127 262.48 127 262.4 127 262.26 127.08 262.17 127.18 262.03 127.33 262 127.59 262 128.52 262 129.51 261.97 129.69 261.82 129.83 261.72 129.93 261.57 130 261.48 130 261.16 130 261 130.34 261 131.02 261 131.71 260.89 131.9 260.42 132.05 260.3 132.08 260.11 132.29 260 132.5 259.89 132.71 259.7 132.92 259.58 132.95 259.11 133.1 259 133.29 259 134 259 134.71 258.89 134.9 258.42 135.05 258.3 135.08 258.11 135.28 258 135.49 257.89 135.72 257.69 135.92 257.5 136 257.31 136.08 257.11 136.28 257 136.5 256.89 136.72 256.69 136.92 256.5 137 256.31 137.08 256.11 137.28 256 137.5 255.89 137.72 255.69 137.92 255.5 138 255.31 138.08 255.11 138.28 255 138.5 254.78 138.94 254.65 139 254 139 253.35 139 253.22 139.06 253 139.5 252.89 139.72 252.69 139.92 252.5 140 252.31 140.08 252.11 140.28 252 140.5 251.78 140.94 251.65 141 251 141 250.35 141 250.22 141.06 250 141.5 249.89 141.71 249.74 141.9 249.65 141.94 249.56 141.97 249.04 142 248.5 142 247.96 142 247.44 142.03 247.35 142.06 247.26 142.1 247.11 142.29 247 142.5 246.89 142.71 246.74 142.9 246.65 142.94 246.56 142.97 246.04 143 245.5 143 244.96 143 244.44 143.03 244.35 143.06 244.26 143.1 244.11 143.29 244 143.5 243.89 143.71 243.74 143.9 243.65 143.94 243.56 143.97 242.37 144 241 144 239.63 144 238.44 144.03 238.35 144.06 238.26 144.1 238.11 144.29 238 144.5 237.89 144.71 237.74 144.9 237.65 144.94 237.56 144.97 234.76 145 231.44 145H225.4L225.2 144.8ZM101.2 143.8C101.09 143.69 101 143.56 101 143.5 101 143.44 100.91 143.31 100.8 143.2 100.65 143.05 100.47 143 100.06 143 99.34 143 99.23 142.94 99 142.5 98.78 142.06 98.65 142 98 142 97.35 142 97.22 141.94 97 141.5 96.89 141.28 96.69 141.08 96.5 141 96.31 140.92 96.11 140.72 96 140.49 95.89 140.28 95.7 140.08 95.58 140.05 95.11 139.9 95 139.71 95 139 95 138.31 94.84 138 94.48 138 94.4 138 94.26 137.92 94.17 137.82 94.02 137.66 94 137.31 94 134.98V132.33L94.18 132.17C94.28 132.07 94.43 132 94.52 132 94.84 132 95 131.66 95 130.98 95 130.29 95.11 130.1 95.58 129.95 95.7 129.92 95.89 129.72 96 129.51 96.11 129.28 96.31 129.08 96.5 129 96.69 128.92 96.89 128.72 97 128.5 97.22 128.06 97.35 128 98 128 98.65 128 98.78 127.94 99 127.5 99.22 127.06 99.35 127 100 127 100.65 127 100.78 126.94 101 126.5 101.11 126.29 101.26 126.1 101.35 126.06 101.57 125.98 106.43 125.98 106.65 126.06 106.74 126.1 106.89 126.29 107 126.5 107.22 126.94 107.35 127 108 127 108.65 127 108.78 127.06 109 127.5 109.22 127.94 109.35 128 110 128 110.65 128 110.78 128.06 111 128.5 111.11 128.72 111.31 128.92 111.5 129 111.69 129.08 111.89 129.28 112 129.51 112.11 129.72 112.3 129.92 112.42 129.95 112.89 130.1 113 130.29 113 131 113 131.69 113.16 132 113.52 132 113.6 132 113.74 132.08 113.83 132.18 113.98 132.34 114 132.69 114 135.02V137.67L113.82 137.83C113.72 137.93 113.57 138 113.48 138 113.16 138 113 138.34 113 139.02 113 139.71 112.89 139.9 112.42 140.05 112.3 140.08 112.11 140.28 112 140.49 111.89 140.72 111.69 140.92 111.5 141 111.31 141.08 111.11 141.28 111 141.5 110.78 141.94 110.65 142 110 142 109.35 142 109.22 142.06 109 142.5 108.78 142.94 108.65 143 108 143 107.35 143 107.22 143.06 107 143.5 106.89 143.71 106.74 143.9 106.65 143.94 106.56 143.97 105.34 144 103.94 144H101.4L101.2 143.8ZM129.2 143.8C129.09 143.69 129 143.56 129 143.5 129 143.44 128.91 143.31 128.8 143.2 128.65 143.05 128.47 143 128.06 143 127.34 143 127.23 142.94 127 142.5 126.78 142.06 126.65 142 126 142 125.35 142 125.22 141.94 125 141.5 124.89 141.28 124.69 141.08 124.5 141 124.31 140.92 124.11 140.72 124 140.49 123.89 140.28 123.7 140.08 123.58 140.05 123.11 139.9 123 139.71 123 139 123 138.31 122.84 138 122.48 138 122.4 138 122.26 137.92 122.17 137.82 122.02 137.66 122 137.31 122 134.98V132.33L122.18 132.17C122.28 132.07 122.43 132 122.52 132 122.84 132 123 131.66 123 130.98 123 130.29 123.11 130.1 123.58 129.95 123.7 129.92 123.89 129.72 124 129.51 124.11 129.28 124.31 129.08 124.5 129 124.69 128.92 124.89 128.72 125 128.5 125.22 128.06 125.35 128 126 128 126.65 128 126.78 127.94 127 127.5 127.22 127.06 127.35 127 128 127 128.65 127 128.78 126.94 129 126.5 129.11 126.29 129.26 126.1 129.35 126.06 129.57 125.98 134.43 125.98 134.65 126.06 134.74 126.1 134.89 126.29 135 126.5 135.22 126.94 135.35 127 136 127 136.65 127 136.78 127.06 137 127.5 137.22 127.94 137.35 128 138 128 138.65 128 138.78 128.06 139 128.5 139.11 128.72 139.31 128.92 139.5 129 139.69 129.08 139.89 129.28 140 129.51 140.11 129.72 140.3 129.92 140.42 129.95 140.89 130.1 141 130.29 141 131 141 131.69 141.16 132 141.52 132 141.6 132 141.74 132.08 141.83 132.18 141.98 132.34 142 132.69 142 135.02V137.67L141.82 137.83C141.72 137.93 141.57 138 141.48 138 141.16 138 141 138.34 141 139.02 141 139.71 140.89 139.9 140.42 140.05 140.3 140.08 140.11 140.28 140 140.49 139.89 140.72 139.69 140.92 139.5 141 139.31 141.08 139.11 141.28 139 141.5 138.78 141.94 138.65 142 138 142 137.35 142 137.22 142.06 137 142.5 136.78 142.94 136.65 143 136 143 135.35 143 135.22 143.06 135 143.5 134.89 143.71 134.74 143.9 134.65 143.94 134.56 143.97 133.34 144 131.94 144H129.4L129.2 143.8ZM40.2 132.8C40.09 132.69 40 132.56 40 132.5 40 132.44 39.91 132.31 39.8 132.2L39.6 132H36.56C34.89 132 33.44 131.97 33.35 131.94 33.26 131.9 33.11 131.71 33 131.5 32.89 131.29 32.74 131.1 32.65 131.06 32.56 131.03 31.82 131 31 131 30.18 131 29.44 130.97 29.35 130.94 29.26 130.9 29.11 130.71 29 130.5 28.78 130.06 28.65 130 28 130 27.35 130 27.22 129.94 27 129.5 26.89 129.29 26.74 129.1 26.65 129.06 26.56 129.03 26.04 129 25.5 129 24.96 129 24.44 128.97 24.35 128.94 24.26 128.9 24.11 128.71 24 128.5 23.78 128.06 23.65 128 23 128 22.35 128 22.22 127.94 22 127.5 21.89 127.28 21.69 127.08 21.5 127 21.31 126.92 21.11 126.72 21 126.5 20.78 126.06 20.65 126 20 126 19.35 126 19.22 125.94 19 125.5 18.89 125.28 18.69 125.08 18.5 125 18.31 124.92 18.11 124.72 18 124.5 17.89 124.28 17.69 124.08 17.5 124 17.31 123.92 17.11 123.72 17 123.5 16.89 123.28 16.69 123.08 16.5 123 16.31 122.92 16.11 122.72 16 122.5 15.89 122.28 15.690001 122.08 15.5 122 15.31 121.92 15.11 121.72 15 121.5 14.89 121.28 14.690001 121.08 14.5 121 14.31 120.92 14.11 120.72 14 120.5 13.89 120.28 13.690001 120.08 13.5 120 13.31 119.92 13.11 119.72 13 119.49 12.89 119.28 12.7 119.08 12.58 119.05 12.11 118.9 12 118.71 12 118 12 117.31 11.84 117 11.48 117 11.16 117 11 116.66 11 115.98 11 115.31 10.84 115 10.48 115 10.4 115 10.26 114.92 10.17 114.82 10.03 114.67 10 114.41 10 113.48 10 112.49 9.97 112.31 9.82 112.17 9.72 112.07 9.57 112 9.48 112 9.4 112 9.26 111.92 9.17 111.82 9.03 111.66 9 111.38 9 109.98 9 108.51 8.98 108.31 8.82 108.17 8.72 108.07 8.57 108 8.48 108 8.4 108 8.26 107.92 8.17 107.82 8.02 107.66 8 107.34 8 105.48V103.33L7.82 103.17C7.72 103.07 7.57 103 7.48 103 7.4 103 7.26 102.92 7.17 102.82L7 102.63V77.98 53.33L7.18 53.17 7.37 53H16.02 24.67L24.83 53.18 25 53.37V76.52 99.67L25.18 99.83C25.28 99.93 25.43 100 25.52 100 25.6 100 25.74 100.08 25.83 100.18 25.97 100.34 26 100.62 26 102.02 26 103.49 26.02 103.69 26.18 103.83 26.28 103.93 26.43 104 26.52 104 26.84 104 27 104.34 27 105.02 27 105.69 27.16 106 27.52 106 27.84 106 28 106.34 28 107.02 28 107.71 28.11 107.9 28.58 108.05 28.7 108.08 28.89 108.28 29 108.49 29.11 108.72 29.31 108.92 29.5 109 29.69 109.08 29.89 109.28 30 109.5 30.11 109.72 30.31 109.92 30.5 110 30.69 110.08 30.89 110.28 31 110.5 31.22 110.94 31.35 111 32 111 32.65 111 32.78 111.06 33 111.5 33.11 111.72 33.31 111.92 33.5 112 33.69 112.08 33.89 112.28 34 112.5 34.11 112.71 34.26 112.9 34.35 112.94 34.44 112.97 34.96 113 35.5 113 36.04 113 36.56 113.03 36.65 113.06 36.74 113.1 36.89 113.29 37 113.5 37.11 113.71 37.26 113.9 37.35 113.94 37.44 113.97 38.41 114 39.5 114 40.59 114 41.56 114.03 41.65 114.06 41.74 114.1 41.89 114.29 42 114.5 42.11 114.71 42.26 114.9 42.35 114.94 42.44 114.97 46.38 115 51.09 115H59.67L59.83 114.82 60 114.63V83.98 53.33L60.18 53.17 60.37 53H69.02 77.67L77.83 53.18 78 53.37V76.02 98.67L78.18 98.83 78.37 99H97.52 116.67L116.83 98.82 117 98.63V71.48 44.33L117.18 44.17 117.37 44H126.02 134.67L134.83 44.18 135 44.37V80.52 116.67L134.82 116.83 134.63 117H106.48 78.33L78.17 117.18 78 117.37V125.02 132.67L77.82 132.83 77.63 133H59.02 40.4L40.2 132.8ZM246.82 98.83 247 98.67V80.52 62.37L246.83 62.18 246.67 62H240.59C237.25 62 234.44 62.03 234.35 62.06 234.26 62.1 234.11 62.29 234 62.5 233.89 62.71 233.74 62.9 233.65 62.94 233.56 62.97 233.04 63 232.5 63 231.96 63 231.44 63.03 231.35 63.06 231.26 63.1 231.11 63.29 231 63.5 230.78 63.94 230.65 64 230 64 229.35 64 229.22 64.06 229 64.5 228.78 64.94 228.65 65 228 65 227.35 65 227.22 65.06 227 65.5 226.78 65.94 226.65 66 226 66 225.35 66 225.22 66.06 225 66.5 224.89 66.72 224.69 66.92 224.5 67 224.31 67.08 224.11 67.28 224 67.5 223.89 67.72 223.69 67.92 223.5 68 223.31 68.08 223.11 68.28 223 68.5 222.89 68.72 222.69 68.92 222.5 69 222.31 69.08 222.11 69.28 222 69.51 221.89 69.72 221.7 69.92 221.58 69.95 221.11 70.1 221 70.29 221 71 221 71.71 220.89 71.9 220.42 72.05 220.3 72.08 220.11 72.29 220 72.5 219.89 72.71 219.7 72.92 219.58 72.95 219.05 73.12 219 73.25 219 74.48 219 75.41 218.97 75.67 218.83 75.82 218.74 75.92 218.6 76 218.52 76 218.43 76 218.28 76.07 218.18 76.17L218 76.33V80.48C218 84.21 218.02 84.65 218.17 84.82 218.26 84.92 218.4 85 218.48 85 218.57 85 218.72 85.07 218.82 85.17 218.97 85.31 219 85.49 219 86.48 219 87.41 219.03 87.67 219.17 87.82 219.26 87.92 219.4 88 219.48 88 219.84 88 220 88.31 220 88.98 220 89.66 220.16 90 220.48 90 220.84 90 221 90.31 221 91 221 91.71 221.11 91.9 221.58 92.05 221.7 92.08 221.89 92.28 222 92.49 222.11 92.72 222.31 92.92 222.5 93 222.69 93.08 222.89 93.28 223 93.5 223.11 93.72 223.31 93.92 223.5 94 223.69 94.08 223.89 94.28 224 94.5 224.22 94.94 224.35 95 225 95 225.65 95 225.78 95.06 226 95.5 226.22 95.94 226.35 96 227 96 227.65 96 227.78 96.06 228 96.5 228.22 96.94 228.35 97 229 97 229.65 97 229.78 97.06 230 97.5 230.11 97.71 230.26 97.9 230.35 97.94 230.44 97.97 231.21 98 232.06 98H233.6L233.8 98.2C233.91 98.31 234 98.45 234 98.5 234 98.55 234.09 98.69 234.2 98.8L234.4 99H240.52 246.63L246.82 98.83ZM40.2 41.8C40.09 41.69 40 41.55 40 41.5 40 41.45 39.91 41.31 39.8 41.2 39.65 41.05 39.47 41 39.06 41 38.34 41 38.23 40.94 38 40.5 37.78 40.06 37.65 40 37 40 36.35 40 36.22 39.94 36 39.5 35.89 39.28 35.69 39.08 35.5 39 35.31 38.92 35.11 38.72 35 38.49 34.89 38.28 34.7 38.08 34.58 38.05 34.05 37.88 34 37.75 34 36.5 34 35.49 33.97 35.31 33.82 35.17 33.72 35.07 33.57 35 33.48 35 33.4 35 33.26 34.92 33.17 34.82 33.02 34.66 33 34.34 33 32.48V30.33L33.18 30.17C33.28 30.07 33.43 30 33.52 30 33.84 30 34 29.66 34 28.98 34 28.31 34.16 28 34.52 28 34.84 28 35 27.66 35 26.98 35 26.29 35.11 26.1 35.58 25.95 35.7 25.92 35.89 25.71 36 25.51 36.22 25.06 36.35 25 37 25 37.65 25 37.78 24.94 38 24.5 38.22 24.06 38.35 24 39 24 39.65 24 39.78 23.94 40 23.5 40.11 23.29 40.26 23.1 40.35 23.06 40.57 22.98 46.43 22.98 46.65 23.06 46.74 23.1 46.89 23.29 47 23.5 47.22 23.94 47.35 24 48 24 48.65 24 48.78 24.06 49 24.5 49.22 24.94 49.35 25 50 25 50.65 25 50.78 25.06 51 25.51 51.11 25.71 51.3 25.92 51.42 25.95 51.89 26.1 52 26.29 52 27 52 27.69 52.16 28 52.52 28 52.84 28 53 28.34 53 29.02 53 29.69 53.16 30 53.52 30 53.6 30 53.74 30.08 53.83 30.18 53.98 30.34 54 30.66 54 32.52V34.67L53.82 34.83C53.72 34.93 53.57 35 53.48 35 53.4 35 53.26 35.08 53.17 35.18 53.03 35.33 53 35.59 53 36.52 53 37.75 52.95 37.88 52.42 38.05 52.3 38.08 52.11 38.28 52 38.49 51.89 38.72 51.69 38.92 51.5 39 51.31 39.08 51.11 39.28 51 39.5 50.78 39.94 50.65 40 50 40 49.35 40 49.22 40.06 49 40.5 48.78 40.94 48.65 41 48 41 47.35 41 47.22 41.06 47 41.5 46.89 41.71 46.74 41.9 46.65 41.94 46.56 41.97 45.11 42 43.44 42H40.4L40.2 41.8ZM341.2 32.8C341.09 32.69 341 32.55 341 32.5 341 32.45 340.91 32.31 340.8 32.2 340.65 32.05 340.47 32 340.06 32 339.34 32 339.23 31.94 339 31.5 338.78 31.06 338.65 31 338 31 337.35 31 337.22 30.94 337 30.5 336.89 30.28 336.69 30.08 336.5 30 336.31 29.92 336.11 29.72 336 29.49 335.89 29.28 335.7 29.08 335.58 29.05 335.05 28.88 335 28.75 335 27.5 335 26.49 334.97 26.31 334.82 26.17 334.72 26.07 334.57 26 334.48 26 334.4 26 334.26 25.92 334.17 25.82 334.02 25.66 334 25.34 334 23.48V21.33L334.18 21.17C334.28 21.07 334.43 21 334.52 21 334.84 21 335 20.66 335 19.98 335 19.31 335.16 19 335.52 19 335.84 19 336 18.66 336 17.98 336 17.29 336.11 17.1 336.58 16.95 336.7 16.92 336.89 16.71 337 16.51 337.22 16.06 337.35 16 338 16 338.65 16 338.78 15.940001 339 15.5 339.22 15.06 339.35 15 340 15 340.65 15 340.78 14.940001 341 14.5 341.11 14.29 341.26 14.1 341.35 14.06 341.57 13.98 347.43 13.98 347.65 14.06 347.74 14.1 347.89 14.29 348 14.5 348.22 14.940001 348.35 15 349 15 349.65 15 349.78 15.06 350 15.5 350.22 15.940001 350.35 16 351 16 351.65 16 351.78 16.06 352 16.5 352.11 16.72 352.31 16.92 352.5 17 352.69 17.08 352.89 17.28 353 17.51 353.11 17.72 353.3 17.92 353.42 17.95 353.89 18.1 354 18.29 354 19 354 19.69 354.16 20 354.52 20 354.6 20 354.74 20.08 354.83 20.18 354.98 20.34 355 20.73 355 23.52V26.67L354.82 26.83C354.72 26.93 354.57 27 354.48 27 354.16 27 354 27.34 354 28.02 354 28.71 353.89 28.9 353.42 29.05 353.3 29.08 353.11 29.28 353 29.49 352.89 29.72 352.69 29.92 352.5 30 352.31 30.08 352.11 30.28 352 30.5 351.78 30.94 351.65 31 351 31 350.35 31 350.22 31.06 350 31.5 349.78 31.94 349.65 32 349 32 348.35 32 348.22 32.06 348 32.5 347.89 32.71 347.74 32.9 347.65 32.94 347.56 32.97 346.11 33 344.44 33H341.4L341.2 32.8Z" fill="#fffdf5" fill-rule="evenodd"/>
</g>
<g clip-path="url(#clip_5)">
<use data-text="&#xfed6;" xlink:href="#font_6_126" transform="matrix(15.997499,0,0,-15.997499,31.378907,255.75)" fill="#cbb380"/>
<use data-text="&#xfeb8;" xlink:href="#font_6_104" transform="matrix(15.997499,0,0,-15.997499,42.321199,255.75)" fill="#cbb380"/>
<use data-text="&#xfee3;" xlink:href="#font_6_136" transform="matrix(15.997499,0,0,-15.997499,55.631105,255.75)" fill="#cbb380"/>
<use data-text="&#x062f;" xlink:href="#font_7_225" transform="matrix(15.997499,0,0,-15.997499,65.05365,255.75)" fill="#cbb380"/>
<use data-text=" " xlink:href="#font_7_3" transform="matrix(15.997499,0,0,-15.997499,73.78827,255.75)" fill="#cbb380"/>
<use data-text="&#xfee6;" xlink:href="#font_6_138" transform="matrix(15.997499,0,0,-15.997499,77.77167,255.75)" fill="#cbb380"/>
<use data-text="&#xfee3;" xlink:href="#font_6_136" transform="matrix(15.997499,0,0,-15.997499,88.93793,255.75)" fill="#cbb380"/>
<use data-text=" " xlink:href="#font_7_3" transform="matrix(15.997499,0,0,-15.997499,98.36044,255.75)" fill="#cbb380"/>
<use data-text="&#xfee2;" xlink:href="#font_6_135" transform="matrix(15.997499,0,0,-15.997499,102.34381,255.75)" fill="#cbb380"/>
<use data-text="&#xfef3;" xlink:href="#font_6_147" transform="matrix(15.997499,0,0,-15.997499,113.75,255.75)" fill="#cbb380"/>
<use data-text="&#xfeae;" xlink:href="#font_6_97" transform="matrix(15.997499,0,0,-15.997499,120.62891,255.75)" fill="#cbb380"/>
<use data-text="&#x0643;" xlink:href="#font_8_252" transform="matrix(15.997499,0,0,-15.997499,125.15619,255.75)" fill="#cbb380"/>
<use data-text="&#xfedf;" xlink:href="#font_6_133" transform="matrix(15.997499,0,0,-15.997499,133.73084,255.75)" fill="#cbb380"/>
<use data-text="&#x0627;" xlink:href="#font_7_217" transform="matrix(15.997499,0,0,-15.997499,138.17816,255.75)" fill="#cbb380"/>
<use data-text=" " xlink:href="#font_7_3" transform="matrix(15.997499,0,0,-15.997499,142.19351,255.75)" fill="#cbb380"/>
<use data-text="&#x0646;" xlink:href="#font_7_243" transform="matrix(15.997499,0,0,-15.997499,146.17688,255.75)" fill="#cbb380"/>
<use data-text="&#x0622;" xlink:href="#font_7_212" transform="matrix(15.997499,0,0,-15.997499,156.7992,255.75)" fill="#cbb380"/>
<use data-text="&#xfeae;" xlink:href="#font_6_97" transform="matrix(15.997499,0,0,-15.997499,160.81458,255.75)" fill="#cbb380"/>
<use data-text="&#xfed8;" xlink:href="#font_6_128" transform="matrix(15.997499,0,0,-15.997499,165.34186,255.75)" fill="#cbb380"/>
<use data-text="&#xfedf;" xlink:href="#font_6_133" transform="matrix(15.997499,0,0,-15.997499,173.53256,255.75)" fill="#cbb380"/>
<use data-text="&#x0627;" xlink:href="#font_7_217" transform="matrix(15.997499,0,0,-15.997499,177.97986,255.75)" fill="#cbb380"/>
<use data-text=" " xlink:href="#font_7_3" transform="matrix(15.997499,0,0,-15.997499,181.99524,255.75)" fill="#cbb380"/>
<use data-text="&#xfe94;" xlink:href="#font_6_79" transform="matrix(15.997499,0,0,-15.997499,185.9786,255.75)" fill="#cbb380"/>
<use data-text="&#xfecb;" xlink:href="#font_6_118" transform="matrix(15.997499,0,0,-15.997499,194.37729,255.75)" fill="#cbb380"/>
<use data-text="&#x0627;" xlink:href="#font_7_217" transform="matrix(15.997499,0,0,-15.997499,203.7038,255.75)" fill="#cbb380"/>
<use data-text="&#x0630;" xlink:href="#font_7_226" transform="matrix(15.997499,0,0,-15.997499,207.71918,255.75)" fill="#cbb380"/>
<use data-text="&#x0625;" xlink:href="#font_7_215" transform="matrix(15.997499,0,0,-15.997499,216.62976,255.75)" fill="#cbb380"/>
</g>
</g>
</g>
</svg>
